<svg xmlns="http://www.w3.org/2000/svg" width="128" height="80" viewBox="0 0 128 80">
  <metadata><?xpacket begin="﻿" id="W5M0MpCehiHzreSzNTczkc9d"?>
<x:xmpmeta xmlns:x="adobe:ns:meta/" x:xmptk="Adobe XMP Core 5.6-c138 79.159824, 2016/09/14-01:09:01        ">
   <rdf:RDF xmlns:rdf="http://www.w3.org/1999/02/22-rdf-syntax-ns#">
      <rdf:Description rdf:about=""/>
   </rdf:RDF>
</x:xmpmeta>
                                                                                                    
                                                                                                    
                                                                                                    
                                                                                                    
                                                                                                    
                                                                                                    
                                                                                                    
                                                                                                    
                                                                                                    
                                                                                                    
                                                                                                    
                                                                                                    
                                                                                                    
                                                                                                    
                                                                                                    
                                                                                                    
                                                                                                    
                                                                                                    
                                                                                                    
                                                                                                    
                           
<?xpacket end="w"?></metadata>
<defs>
    <style>
      .cls-1 {
        fill-rule: evenodd;
      }
    </style>
  </defs>
  <path id="be" class="cls-1" d="M0,0C16.814-.294,47.085-2.555,56,5c10.339,8.762,8.117,25.411-2.5,32v0.5H54c3.172,2.926,7.055,3.76,9,8A21.3,21.3,0,0,1,65,52C68.54,85.672,30.389,80.315,0,80V0ZM84,3.5h31c0.62,1.8.535,4.942,0.5,7.5-6.13,2.038-23.648.537-31.5,0.5A15.413,15.413,0,0,1,84,3.5ZM18.5,14V31.5c9.332,0.265,26.645,2.326,27.5-6,1.736-2.194.816-6.533-1-8C42.4,12.129,26.448,13.881,18.5,14ZM128,53H87a7.072,7.072,0,0,0-.5,2c2.292,3.766,1.935,7.633,5.5,10,8.186,5.436,16.32.4,20.5-4.5h14A7.852,7.852,0,0,1,127,63c-0.981,1.109-1.124,2.727-2,4a29.957,29.957,0,0,1-14,11C88.336,85.738,67.158,67.531,72,45.5c0.791-3.6-.1-5.934,1-9C77.647,23.523,94.521,13.9,112.5,21,123.635,25.4,128.239,36.908,128,53ZM87,43c7.563,0.071,19.013,1.674,25.5-.5-1.642-5.172-2.838-9.977-9-10.5C96.035,26.667,87.648,36.732,87,43ZM18.5,45V66c8.352,0.053,17.61-.407,24.5-1a64.729,64.729,0,0,1,5-5.5c0.176-3.187,1.139-6.667-.5-9C44.9,42.7,28.824,44.828,18.5,45Z"/>
</svg>
