<svg xmlns="http://www.w3.org/2000/svg" width="70" height="128" viewBox="0 0 70 128">
  <metadata><?xpacket begin="﻿" id="W5M0MpCehiHzreSzNTczkc9d"?>
<x:xmpmeta xmlns:x="adobe:ns:meta/" x:xmptk="Adobe XMP Core 5.6-c138 79.159824, 2016/09/14-01:09:01        ">
   <rdf:RDF xmlns:rdf="http://www.w3.org/1999/02/22-rdf-syntax-ns#">
      <rdf:Description rdf:about=""/>
   </rdf:RDF>
</x:xmpmeta>
                                                                                                    
                                                                                                    
                                                                                                    
                                                                                                    
                                                                                                    
                                                                                                    
                                                                                                    
                                                                                                    
                                                                                                    
                                                                                                    
                                                                                                    
                                                                                                    
                                                                                                    
                                                                                                    
                                                                                                    
                                                                                                    
                                                                                                    
                                                                                                    
                                                                                                    
                                                                                                    
                           
<?xpacket end="w"?></metadata>
<defs>
    <style>
      .cls-1 {
        fill-rule: evenodd;
      }
    </style>
  </defs>
  <path id="fb" class="cls-1" d="M44.5,0H68c2.858,4.813,2.067,14.724,2,22.5-0.917.642-.856,0.984-2,1.5-6.98,5.66-21.2-6.575-21,10-1.355,2.093-.566,8.4-0.5,11.5,5.188,1.737,14.323.542,20.5,0.5a12.489,12.489,0,0,0,2,2.5c0.1,4.546.82,22.363-1.5,23.5h-20L47,73.5c-1.4,2.334-.5,8.666-0.5,12V115c0,4.213,1.379,11.386-1,13H21c-3-10.17-1.5-26.838-1.5-39.5,0-4.01,1.041-12.866,0-15-1.321-2.935-13.785-1.627-18-1.5C-1.051,66.8-.054,56.094,0,48.5c1.1-.832,1.013-1.418,2.5-2,2.173-1.388,13.368-.557,17-0.5L20,44.5c-1.478-2.327-.533-10.043,0-12.5V24.5C22.265,16.021,26.588,7.79,33.5,4,36.569,2.317,41.835,2.245,44.5,0Z"/>
</svg>
