<svg xmlns="http://www.w3.org/2000/svg" width="128" height="128" viewBox="0 0 128 128">
  <metadata><?xpacket begin="﻿" id="W5M0MpCehiHzreSzNTczkc9d"?>
<x:xmpmeta xmlns:x="adobe:ns:meta/" x:xmptk="Adobe XMP Core 5.6-c138 79.159824, 2016/09/14-01:09:01        ">
   <rdf:RDF xmlns:rdf="http://www.w3.org/1999/02/22-rdf-syntax-ns#">
      <rdf:Description rdf:about=""/>
   </rdf:RDF>
</x:xmpmeta>
                                                                                                    
                                                                                                    
                                                                                                    
                                                                                                    
                                                                                                    
                                                                                                    
                                                                                                    
                                                                                                    
                                                                                                    
                                                                                                    
                                                                                                    
                                                                                                    
                                                                                                    
                                                                                                    
                                                                                                    
                                                                                                    
                                                                                                    
                                                                                                    
                                                                                                    
                                                                                                    
                           
<?xpacket end="w"?></metadata>
<defs>
    <style>
      .cls-1 {
        fill-rule: evenodd;
      }
    </style>
  </defs>
  <path id="new_vector_shape_done" class="cls-1" d="M30.5,0h67c8.067,1.991,17.145,5.711,21.5,11.5a51.056,51.056,0,0,1,9,19V75c0,10.458.872,22.273-2,30a38.882,38.882,0,0,1-14,17.5c-9.842,6.423-25.963,5.5-42.5,5.5h-22C18.3,128,5.665,120.819,0,97.5V59C0,46.963-1.371,32.079,2,23,5.2,14.37,12.613,7.012,20.5,3,23.512,1.468,27.8,1.866,30.5,0ZM32,11.5c-1.7,1.081-3.961.7-6,1.5-5.217,2.047-10.972,7.768-13,13-2.316,5.976-1.5,15.442-1.5,23.5,0,19.807-3.151,47.386,5.5,59,8.686,11.661,37.012,8,57,8,14.421,0,26.5.458,34.5-5.5,12-8.937,8-43.966,8-65,0-13.26-.538-23.455-8-29A35.163,35.163,0,0,0,99,12c-5.733-1.813-14.842-.5-21.5-0.5H32Zm65,10,5,0.5c1.69,2.114,3.635,2.357,4,6,1.006,1.506.2,3.59,0,5.5-2.993,2.353-3.828,4.473-9.5,4.5A5.863,5.863,0,0,0,94,37c-1.732-2.42-6.03-6.383-3-10.5,0.792-2.538,2.4-2.9,4-4.5A3.23,3.23,0,0,0,97,21.5ZM61,31c23.357-.358,43.439,20.368,34,45C90.514,87.707,80.489,94.055,67,97c-6.315,1.379-13.368-1.6-17-3.5C37.626,87.033,25.582,71.414,33,52c3.067-8.028,10.945-15.966,19-19C54.8,31.945,58.542,32.514,61,31Zm0,11.5c-1.723,1.064-4.026.575-6,1.5-5.187,2.431-10.175,8.215-12,14C38.1,73.524,54.412,90.1,70,85c9.624-3.148,20.519-16.075,14-30C80.359,47.223,72.83,42.271,61,42.5Z"/>
</svg>
