<?xml version="1.0" encoding="utf-8"?>
<!-- Generator: Adobe Illustrator 21.0.0, SVG Export Plug-In . SVG Version: 6.00 Build 0)  -->
<svg version="1.1" id="Слой_1" xmlns="http://www.w3.org/2000/svg" xmlns:xlink="http://www.w3.org/1999/xlink" x="0px" y="0px"
	 viewBox="0 0 519.3 146" style="enable-background:new 0 0 519.3 146;" xml:space="preserve">
<g>
	<path d="M0,72.8c0-29,23.3-52.6,52.6-52.6s52.6,23.6,52.6,52.6s-23.3,52.6-52.6,52.6S0,101.8,0,72.8z M99.8,72.8
		c0-26.2-20.8-47.5-47.2-47.5S5.4,46.6,5.4,72.8s20.8,47.5,47.2,47.5S99.8,99,99.8,72.8z"/>
	<path d="M305.3,123.8h-5.4V30.2l-37.7,74.9h-5.1l-37.7-74.9v93.6H214v-102h5.4h1.5l38.9,77.1l38.8-77.1h6.9v102H305.3z"/>
	<path d="M414.1,72.8c0-29,23.3-52.6,52.6-52.6c29.3,0,52.6,23.6,52.6,52.6s-23.3,52.6-52.6,52.6
		C437.4,125.4,414.1,101.8,414.1,72.8z M513.9,72.8c0-26.2-20.8-47.5-47.2-47.5c-26.4,0-47.2,21.3-47.2,47.5s20.8,47.5,47.2,47.5
		C493.1,120.3,513.9,99,513.9,72.8z"/>
</g>
</svg>
