<svg xmlns="http://www.w3.org/2000/svg" width="128" height="72.75" viewBox="0 0 128 72.75">
  <metadata><?xpacket begin="﻿" id="W5M0MpCehiHzreSzNTczkc9d"?>
<x:xmpmeta xmlns:x="adobe:ns:meta/" x:xmptk="Adobe XMP Core 5.6-c138 79.159824, 2016/09/14-01:09:01        ">
   <rdf:RDF xmlns:rdf="http://www.w3.org/1999/02/22-rdf-syntax-ns#">
      <rdf:Description rdf:about=""/>
   </rdf:RDF>
</x:xmpmeta>
                                                                                                    
                                                                                                    
                                                                                                    
                                                                                                    
                                                                                                    
                                                                                                    
                                                                                                    
                                                                                                    
                                                                                                    
                                                                                                    
                                                                                                    
                                                                                                    
                                                                                                    
                                                                                                    
                                                                                                    
                                                                                                    
                                                                                                    
                                                                                                    
                                                                                                    
                                                                                                    
                           
<?xpacket end="w"?></metadata>
<defs>
    <style>
      .cls-1 {
        fill-rule: evenodd;
      }
    </style>
  </defs>
  <path id="vk" class="cls-1" d="M46.5,1c4.828-.068,22.141-1.313,25,0.5C73.422,2.093,73.823,2.605,74,5c1.087,1.764.5,6.344,0.5,9,0,6.9-.1,14.525,1,20A12.489,12.489,0,0,1,78,36a7.072,7.072,0,0,1,2-.5c1.562-2.469,4.325-4.195,6-6.5,3.4-4.685,6.439-10.829,9-16,1.642-3.315,1.513-7.6,5-9,3.633-2.813,22.545-.624,27,0a11.164,11.164,0,0,1,1,5c-2.253,1.989-2.805,5.944-4.5,8.5-3.933,5.931-15.822,17.574-16.5,25,0.977,1.009,1.141,2.315,2,3.5,5.148,7.1,18.747,13.076,19,24.5-5.364,3.9-17.815,2.594-27,2.5-1.37-1.271-3.4-1.4-5-2.5L85.5,59c-1.178-1.037-4.356-3.173-5.5-2.5-5.2,1.474-4.929,9.57-6,15-6.912,3.244-21.011,1.427-27-1.5C27.653,60.544,19.671,43.179,9,25,6.078,20.022.171,11.442,0,4.5,5.839,3.022,18.57,2.695,25,4c4.519,8.061,8.991,17.01,14,24.5,2.209,3.3,3.421,7.08,8.5,7.5,2.646-4.246,4.824-19.477,2-26C48.117,6.806,43.838,6.955,43,3.5Z" transform="translate(0 -0.531)"/>
</svg>
